<svg width="24" height="24" viewBox="0 0 24 24" fill="none" xmlns="http://www.w3.org/2000/svg">
<g clip-path="url(#clip0_5845_19443)">
<g clip-path="url(#clip1_5845_19443)">
<path d="M19.5 6.98326C16.725 6.70826 13.9333 6.56659 11.15 6.56659C9.5 6.56659 7.85 6.64992 6.2 6.81659L4.5 6.98326" stroke="white" stroke-width="1.5" stroke-linecap="round" stroke-linejoin="round"/>
<path d="M9.08594 6.14156L9.26927 5.0499C9.4026 4.25823 9.5026 3.66656 10.9109 3.66656H13.0943C14.5026 3.66656 14.6109 4.29157 14.7359 5.05823L14.9193 6.14156" stroke="white" stroke-width="1.5" stroke-linecap="round" stroke-linejoin="round"/>
<path d="M17.7057 9.61661L17.1641 18.0083C17.0724 19.3166 16.9974 20.3333 14.6724 20.3333H9.3224C6.9974 20.3333 6.9224 19.3166 6.83073 18.0083L6.28906 9.61661" stroke="white" stroke-width="1.5" stroke-linecap="round" stroke-linejoin="round"/>
<path d="M10.6094 15.75H13.3844" stroke="white" stroke-width="1.5" stroke-linecap="round" stroke-linejoin="round"/>
<path d="M9.91406 12.4166H14.0807" stroke="white" stroke-width="1.5" stroke-linecap="round" stroke-linejoin="round"/>
</g>
</g>
<defs>
<clipPath id="clip0_5845_19443">
<rect width="24" height="24" fill="white"/>
</clipPath>
<clipPath id="clip1_5845_19443">
<rect width="24" height="24" fill="white"/>
</clipPath>
</defs>
</svg>
