<svg width="24" height="24" viewBox="0 0 24 24" fill="none" xmlns="http://www.w3.org/2000/svg">
<g clip-path="url(#clip0_5845_6938)">
<path d="M15.812 20.18C15.552 20.18 15.282 20.17 14.992 20.14C14.472 20.1 13.882 20 13.272 19.85L11.592 19.45C6.98203 18.36 5.47203 15.92 6.55203 11.32L7.53203 7.13001C7.75203 6.18002 8.01202 5.41002 8.33202 4.77002C10.052 1.22002 13.342 1.54001 15.682 2.09001L17.352 2.48001C19.692 3.03001 21.172 3.90001 22.002 5.23002C22.822 6.56002 22.952 8.27001 22.402 10.61L21.422 14.79C20.562 18.45 18.772 20.18 15.812 20.18ZM13.122 3.25001C11.452 3.25001 10.392 3.94002 9.68203 5.42002C9.42203 5.96002 9.19202 6.63001 8.99202 7.47001L8.01203 11.66C7.12203 15.44 8.15203 17.09 11.932 17.99L13.612 18.39C14.152 18.52 14.662 18.6 15.122 18.64C17.842 18.91 19.192 17.72 19.952 14.45L20.932 10.27C21.382 8.34002 21.322 6.99002 20.722 6.02001C20.122 5.05001 18.942 4.39002 17.002 3.94002L15.332 3.55001C14.502 3.35001 13.762 3.25001 13.122 3.25001Z" fill="white"/>
<path d="M8.32907 22.25C5.75908 22.25 4.11907 20.71 3.06907 17.46L1.78907 13.51C0.369075 9.10999 1.63907 6.62999 6.01907 5.20999L7.59907 4.69999C8.11907 4.53999 8.50907 4.42999 8.85907 4.36999C9.14907 4.30999 9.42908 4.41999 9.59908 4.64999C9.76908 4.87999 9.79908 5.17999 9.67908 5.43999C9.41908 5.96999 9.18907 6.63999 8.99907 7.47999L8.01908 11.67C7.12908 15.45 8.15907 17.1 11.9391 18L13.6191 18.4C14.1591 18.53 14.6691 18.61 15.1291 18.65C15.4491 18.68 15.7091 18.9 15.7991 19.21C15.8791 19.52 15.7591 19.84 15.4991 20.02C14.8391 20.47 14.0091 20.85 12.9591 21.19L11.3791 21.71C10.2291 22.07 9.22907 22.25 8.32907 22.25ZM7.77908 6.21999L6.48907 6.63999C2.91907 7.78999 2.06907 9.46999 3.21907 13.05L4.49907 17C5.65907 20.57 7.33908 21.43 10.9091 20.28L12.4891 19.76C12.5491 19.74 12.5991 19.72 12.6591 19.7L11.5991 19.45C6.98908 18.36 5.47907 15.92 6.55907 11.32L7.53907 7.12999C7.60908 6.80999 7.68907 6.49999 7.77908 6.21999Z" fill="white"/>
<path d="M17.4933 10.51C17.4333 10.51 17.3733 10.5 17.3033 10.49L12.4533 9.26002C12.0533 9.16002 11.8133 8.75002 11.9133 8.35002C12.0133 7.95002 12.4233 7.71002 12.8233 7.81002L17.6733 9.04002C18.0733 9.14002 18.3133 9.55002 18.2133 9.95002C18.1333 10.28 17.8233 10.51 17.4933 10.51Z" fill="white"/>
<path d="M14.5611 13.89C14.5011 13.89 14.4411 13.88 14.3711 13.87L11.4611 13.13C11.0611 13.03 10.8211 12.62 10.9211 12.22C11.0211 11.82 11.4311 11.58 11.8311 11.68L14.7411 12.42C15.1411 12.52 15.3811 12.93 15.2811 13.33C15.2011 13.67 14.9011 13.89 14.5611 13.89Z" fill="white"/>
</g>
<defs>
<clipPath id="clip0_5845_6938">
<rect width="24" height="24" fill="white"/>
</clipPath>
</defs>
</svg>
